<?xml version="1.0" encoding="UTF-8"?>
<svg version="1.1" xmlns="http://www.w3.org/2000/svg" width="512" height="426">
<path d="M0 0 C29.3420974 -1.50582611 29.3420974 -1.50582611 42.84375 9.26953125 C49.72205628 15.53081299 55.2264956 23.17775805 56.47753906 32.59448242 C56.58694216 36.33118967 56.52704763 40.01508642 56.375 43.75 C56.34792969 45.03132813 56.32085938 46.31265625 56.29296875 47.6328125 C56.22302335 50.7570403 56.12492281 53.8775704 56 57 C55.34 57 54.68 57 54 57 C53.85304688 57.556875 53.70609375 58.11375 53.5546875 58.6875 C51.75374599 64.81484124 49.08385165 69.13435307 45 74 C44.53980469 74.55816406 44.07960938 75.11632812 43.60546875 75.69140625 C42.40978977 77.1327232 41.20527604 78.56669876 40 80 C39.443125 80.78375 38.88625 81.5675 38.3125 82.375 C37.879375 82.91125 37.44625 83.4475 37 84 C36.34 84 35.68 84 35 84 C34.59394531 84.86625 34.59394531 84.86625 34.1796875 85.75 C32.99143773 88.01633069 31.66425691 89.95829136 30.125 92 C29.63257813 92.66 29.14015625 93.32 28.6328125 94 C27 96 27 96 25.03125 97.953125 C22.21784897 100.78816757 19.95522007 103.96454925 17.5859375 107.171875 C17.06257813 107.77515625 16.53921875 108.3784375 16 109 C15.34 109 14.68 109 14 109 C13.76539063 109.71800781 13.53078125 110.43601562 13.2890625 111.17578125 C11.77408097 114.49496807 9.89122175 116.55053077 7.375 119.1875 C2.63488084 124.26326344 -1.72580079 129.53126477 -6 135 C-8.38272105 138.01534272 -10.80934886 140.95173875 -13.375 143.8125 C-16.29951803 147.12528381 -18.96890668 150.55029059 -21.54296875 154.140625 C-23 156 -23 156 -24.953125 157.94921875 C-27.03716401 160.03723494 -28.78408366 162.21117101 -30.5625 164.5625 C-32.58510989 167.23378656 -34.62896937 169.64103569 -37 172 C-38.34842863 173.6124959 -39.67980055 175.23931171 -41 176.875 C-44.92777926 181.70968113 -48.93067767 186.47209565 -52.96923828 191.21435547 C-55.83714062 194.59340912 -58.62930565 198.02005217 -61.375 201.5 C-64.06352484 204.9032656 -66.93250019 207.93250019 -70 211 C-70.495 211.825 -70.99 212.65 -71.5 213.5 C-73.29372628 216.48954379 -75.53464895 218.53464895 -78 221 C-79.57028797 223.01329113 -81.07871213 225.06069739 -82.5703125 227.1328125 C-83.94092519 228.92284765 -85.40417039 230.41210984 -87 232 C-88.34842863 233.6124959 -89.67980055 235.23931171 -91 236.875 C-94.45358146 241.12469926 -97.95247251 245.32851992 -101.5 249.5 C-106.40677885 255.27424254 -111.21434095 261.12492263 -116 267 C-118.74745598 270.35129246 -121.56044737 273.63439824 -124.4375 276.875 C-127.36739886 280.20065861 -130.04658356 283.64597105 -132.640625 287.23828125 C-134 289 -134 289 -135.45703125 290.453125 C-137.98421667 292.98670836 -140.02809102 295.89620088 -142.18359375 298.74609375 C-143.99741726 300.99679519 -145.95357983 302.96145068 -148 305 C-149.37378214 306.62949604 -150.72651053 308.27687757 -152.0625 309.9375 C-155.54731839 314.238893 -159.09282903 318.47768507 -162.6875 322.6875 C-166.20085375 326.80620937 -169.55025036 330.99554419 -172.73828125 335.37109375 C-174.61075783 337.78850159 -176.83988788 339.83988788 -179 342 C-180.31691184 343.76658905 -181.56779754 345.57016662 -182.8203125 347.3828125 C-184.34476793 349.47262889 -186.17194127 351.17194127 -188 353 C-189.51545907 354.97543581 -190.98440648 356.97830467 -192.4375 359 C-194.14370746 361.18394556 -196.03735315 363.04477336 -198 365 C-199.37378214 366.62949604 -200.72651053 368.27687757 -202.0625 369.9375 C-205.51132751 374.19181025 -209.01156428 378.39318091 -212.5625 382.5625 C-216.55793881 387.26024308 -220.45632916 392.02255381 -224.29296875 396.8515625 C-227.24151804 400.56255131 -230.16334621 404.1837524 -233.5625 407.5 C-236.0941402 409.90058862 -236.0941402 409.90058862 -237.71484375 412.890625 C-240.42800797 416.5823835 -243.01274616 418.16461619 -247 420.25 C-247.61617187 420.58773438 -248.23234375 420.92546875 -248.8671875 421.2734375 C-250.56825697 422.20062987 -252.2836763 423.10135882 -254 424 C-254.90443848 424.54261475 -254.90443848 424.54261475 -255.82714844 425.09619141 C-258.67928854 426.2825535 -260.9938479 426.22555051 -264.078125 426.1953125 C-265.23828125 426.18886719 -266.3984375 426.18242187 -267.59375 426.17578125 C-268.8003125 426.15902344 -270.006875 426.14226562 -271.25 426.125 C-272.47203125 426.11597656 -273.6940625 426.10695313 -274.953125 426.09765625 C-277.96894782 426.07409513 -280.98437492 426.04119706 -284 426 C-284 425.34 -284 424.68 -284 424 C-284.78375 423.95875 -285.5675 423.9175 -286.375 423.875 C-294.38591088 421.94133186 -300.08780112 417.41314853 -305 411 C-306.99665598 409.32932867 -308.99651034 407.66247014 -311 406 C-311.639375 405.195625 -312.27875 404.39125 -312.9375 403.5625 C-315.15962304 400.80168047 -317.57412107 398.72253109 -320.28125 396.45703125 C-324.1811018 393.15102052 -327.52467597 389.40797749 -330.875 385.5625 C-333.86123178 382.17135544 -336.94389711 379.1912213 -340.421875 376.31640625 C-344.29414249 373.08632174 -347.57202673 369.35362863 -350.875 365.5625 C-353.86123178 362.17135544 -356.94389711 359.1912213 -360.421875 356.31640625 C-364.29414249 353.08632174 -367.57202673 349.35362863 -370.875 345.5625 C-373.86123178 342.17135544 -376.94389711 339.1912213 -380.421875 336.31640625 C-384.27215961 333.10465894 -387.53165728 329.39733083 -390.8125 325.625 C-394.05134117 321.94616531 -397.46521909 318.71427385 -401.1953125 315.54296875 C-404.91620668 312.36168476 -408.14475018 308.84211183 -411.3125 305.125 C-414.35238261 301.60827306 -417.6265801 298.58946437 -421.16015625 295.578125 C-424.88886792 292.37982454 -428.13343676 288.85538727 -431.3125 285.125 C-433.7182594 282.33828521 -436.19163375 279.87923485 -439 277.5 C-448.47055306 269.34581725 -455.42562652 260.37788199 -456.65234375 247.609375 C-457.35668122 234.96614777 -455.83442098 224.22447809 -448 214 C-444.92038475 210.57085786 -441.70513621 207.73010036 -438 205 C-436.5459375 203.824375 -436.5459375 203.824375 -435.0625 202.625 C-423.54412436 196.51320884 -409.9334379 196.20684515 -397.625 199.9375 C-394.99327116 200.84848306 -392.48887818 201.75556091 -390 203 C-390 203.66 -390 204.32 -390 205 C-389.319375 205.20625 -388.63875 205.4125 -387.9375 205.625 C-380.60135596 209.05893976 -374.86240398 215.8006206 -369.6875 221.875 C-366.64761739 225.39172694 -363.3734199 228.41053563 -359.83984375 231.421875 C-356.11113208 234.62017546 -352.86656324 238.14461273 -349.6875 241.875 C-346.64929086 245.38979096 -343.37940029 248.40875975 -339.84375 251.4140625 C-337.43226701 253.4883466 -335.21913008 255.72247176 -333 258 C-332.18982422 258.77730469 -332.18982422 258.77730469 -331.36328125 259.5703125 C-329.87190358 261.0095441 -328.43185918 262.50154271 -327 264 C-327 264.66 -327 265.32 -327 266 C-326.195625 266.309375 -326.195625 266.309375 -325.375 266.625 C-322.08021991 268.53250426 -319.40636372 271.04819384 -317 274 C-317 274.66 -317 275.32 -317 276 C-316.195625 276.309375 -316.195625 276.309375 -315.375 276.625 C-312.08021991 278.53250426 -309.40636372 281.04819384 -307 284 C-307 284.66 -307 285.32 -307 286 C-306.195625 286.309375 -306.195625 286.309375 -305.375 286.625 C-302.08021991 288.53250426 -299.40636372 291.04819384 -297 294 C-297 294.66 -297 295.32 -297 296 C-296.43829102 296.2357373 -295.87658203 296.47147461 -295.29785156 296.71435547 C-292.45664964 298.30400372 -290.52192715 300.25343276 -288.234375 302.5703125 C-287.34492188 303.46621094 -286.45546875 304.36210937 -285.5390625 305.28515625 C-284.15847656 306.69087891 -284.15847656 306.69087891 -282.75 308.125 C-281.80515144 309.07988637 -280.85984367 310.03431859 -279.9140625 310.98828125 C-277.60481662 313.32109087 -275.30036797 315.65844086 -273 318 C-272.40574219 317.08605469 -271.81148437 316.17210937 -271.19921875 315.23046875 C-269.49581776 312.7283149 -267.83863696 310.53874925 -265.8125 308.3125 C-263.04245151 305.20722272 -260.37413725 302.04220738 -257.75 298.8125 C-254.325047 294.59717324 -250.8377327 290.44361338 -247.3125 286.3125 C-243.79928876 282.19366658 -240.44975622 278.00446484 -237.26171875 273.62890625 C-235.38924217 271.21149841 -233.16011212 269.16011212 -231 267 C-229.68308816 265.23341095 -228.43220246 263.42983338 -227.1796875 261.6171875 C-225.65523207 259.52737111 -223.82805873 257.82805873 -222 256 C-220.48454093 254.02456419 -219.01559352 252.02169533 -217.5625 250 C-216 248 -216 248 -214.0390625 246.046875 C-211.21823656 243.2152413 -208.95679891 240.03758804 -206.5859375 236.828125 C-206.06257812 236.22484375 -205.53921875 235.6215625 -205 235 C-204.34 235 -203.68 235 -203 235 C-202.74347656 234.43410156 -202.48695313 233.86820313 -202.22265625 233.28515625 C-200.85952204 230.73744535 -199.26364929 228.67683862 -197.4375 226.4375 C-196.72851562 225.56609375 -196.01953125 224.6946875 -195.2890625 223.796875 C-194.53367187 222.87390625 -193.77828125 221.9509375 -193 221 C-192.22398437 220.03578125 -191.44796875 219.0715625 -190.6484375 218.078125 C-189.49214844 216.64726562 -189.49214844 216.64726562 -188.3125 215.1875 C-187.60738281 214.31480469 -186.90226562 213.44210938 -186.17578125 212.54296875 C-184 210 -184 210 -181.32421875 207.33203125 C-178.93931187 205.12637689 -178.93931187 205.12637689 -177.5 202.5 C-175.70913769 199.51522948 -173.4593125 197.4593125 -171 195 C-169.71527728 193.28056748 -168.50003911 191.53120047 -167.30859375 189.74609375 C-166 188 -166 188 -164.07421875 186.08203125 C-161.24037743 183.23751633 -158.96766149 180.05229285 -156.5859375 176.828125 C-156.06257813 176.22484375 -155.53921875 175.6215625 -155 175 C-154.34 175 -153.68 175 -153 175 C-152.61134766 174.14728516 -152.61134766 174.14728516 -152.21484375 173.27734375 C-148.14566685 165.64927258 -141.45983696 159.12370546 -135.85766602 152.55493164 C-133.83341067 150.18010487 -131.83485645 147.79334162 -129.88671875 145.35546875 C-128.17143942 143.21403307 -126.3955427 141.16547709 -124.5625 139.125 C-122.33818868 136.60664326 -120.28414938 134.07685195 -118.375 131.3125 C-116.21450074 128.18786915 -113.68894122 125.68894122 -111 123 C-109.4638168 121.01808489 -107.98554092 119.00470406 -106.52734375 116.96484375 C-104.83664287 114.78985003 -102.95095672 112.94359462 -101 111 C-99.62621786 109.37050396 -98.27348947 107.72312243 -96.9375 106.0625 C-93.45268161 101.761107 -89.90717097 97.52231493 -86.3125 93.3125 C-82.80034233 89.1951928 -79.45098326 85.00810345 -76.265625 80.6328125 C-74.39122684 78.21460746 -72.16118394 76.16118394 -70 74 C-69.34 73.01 -68.68 72.02 -68 71 C-65.93353817 67.90030726 -63.62950142 65.62950142 -61 63 C-59.46320307 61.0184453 -57.9855893 59.00477173 -56.52734375 56.96484375 C-54.83664287 54.78985003 -52.95095672 52.94359462 -51 51 C-49.62621786 49.37050396 -48.27348947 47.72312243 -46.9375 46.0625 C-43.45268161 41.761107 -39.90717097 37.52231493 -36.3125 33.3125 C-32.80102781 29.1959964 -29.45463448 25.00786106 -26.265625 20.63671875 C-24.38915298 18.21004659 -22.19469102 16.136936 -20 14 C-19.46375 13.195625 -18.9275 12.39125 -18.375 11.5625 C-13.63715777 6.4506176 -6.88293785 3.0493045 0 2 C0 1.34 0 0.68 0 0 Z " fill="#202020" transform="translate(456,0)"/>
</svg>
